PathFileType	4	(X/Y/Z)	12_2_98_p0_0-232_filt_butterworth.trc
DataRate	CameraRate	NumFrames	NumMarkers	Units	OrigDataRate	OrigDataStartFrame	OrigNumFrames
60.0	60.0	5	27	m	60.0	116	232
Frame#	Time	RHip			RKnee			RAnkle			RBigToe			RSmallToe			RHeel			LHip			LKnee			LAnkle			LBigToe			LSmallToe			LHeel			Neck			Head			Nose			RShoulder			RElbow			RWrist			RThumb			RIndex			RPinky			LShoulder			LElbow			LWrist			LThumb			LIndex			LPinky			
		X1	Y1	Z1	X2	Y2	Z2	X3	Y3	Z3	X4	Y4	Z4	X5	Y5	Z5	X6	Y6	Z6	X7	Y7	Z7	X8	Y8	Z8	X9	Y9	Z9	X10	Y10	Z10	X11	Y11	Z11	X12	Y12	Z12	X13	Y13	Z13	X14	Y14	Z14	X15	Y15	Z15	X16	Y16	Z16	X17	Y17	Z17	X18	Y18	Z18	X19	Y19	Z19	X20	Y20	Z20	X21	Y21	Z21	X22	Y22	Z22	X23	Y23	Z23	X24	Y24	Z24	X25	Y25	Z25	X26	Y26	Z26	X27	Y27	Z27	
116	1.933333333333333	0.4341885646124793	1.0082650503574926	0.4220037030869945	0.4721683332773512	0.56049560514697	0.4945182904541649	0.5106296815925039	0.13813605262059667	0.5675081305082067	0.4723667127340534	0.1279299442035396	0.3592164096765292	0.5398633831294297	0.14113433436942968	0.38684700809894745	0.49535099774196945	0.04767403634778248	0.657924550265218	0.24224829382203872	0.9932835828046458	0.4190101324559488	0.26641617129492356	0.5208267609461006	0.506095660488694	0.3139256211956574	0.11238859586047345	0.5667534523558729	0.3142189953251724	0.12491625686878241	0.3492212709825067	0.25216247877634046	0.11980973473578473	0.4000120358985945	0.32621710634055634	0.04697064630996271	0.6231959830640433	0.3114898183880741	1.5201078336289404	0.4508035579862606	0.2908498630791059	1.7647880366457203	0.40968870032326254	0.30790048905301903	1.6474045231238994	0.2999211443940929	0.4579466590291824	1.4468062056086963	0.4715980357865038	0.5447127753273927	1.2232042165438615	0.41609616908789526	0.5597131649612638	0.9759451227841779	0.38739313252551805	0.5078754121682693	0.8543382775954544	0.37697258871705136	0.5277407504664693	0.8582386324972061	0.33668029935375343	0.5778620621058828	0.852215928498849	0.3757073664290329	0.1579802544081816	1.4374983821407945	0.46409915088781795	0.13835552921272062	1.1909783990560079	0.4653370714401729	0.14956399627136374	0.9569402722735106	0.3823343741449348	0.18421892665450923	0.8600193109157275	0.386427305428048	0.1667400215974783	0.8565397701617425	0.3727048093405657	0.13259896141177932	0.8503788559380172	0.37729730844981474	
117	1.95	0.4340774254721694	1.0078623665211497	0.42272682328948075	0.4721727367976976	0.5606646321817339	0.49451388528747797	0.5101789365270701	0.13820760284906514	0.5673877064024219	0.4719957426220044	0.12891986701401842	0.3588799613617651	0.5398614845011254	0.14115598653518197	0.3868780964609206	0.4953249728370876	0.04773377747250364	0.6578335657432697	0.24217301442311173	0.9937769871661403	0.419042906127323	0.26640227056266574	0.5207497999383033	0.5060988048528607	0.31340382535970723	0.11278269013443155	0.5654624400864806	0.3144113884376244	0.12539561110600528	0.34849585730294264	0.25216389310446674	0.11977231112299988	0.40002899638117767	0.3261148560397634	0.047059783803482504	0.6231812430622001	0.3113139819399829	1.521088543133404	0.4507329948410818	0.2901428548401329	1.7651076732280966	0.4097694134857071	0.3076172771122756	1.647847003616351	0.2996958439981621	0.4578656158019403	1.4480165428686613	0.4711697251046273	0.5447861769708268	1.223230215374314	0.41612486609775423	0.5603367439208246	0.9770358194927986	0.3845182688400913	0.5078117796032551	0.8550820427007573	0.37711486792187215	0.5268769494847838	0.8581069938273346	0.336769068280847	0.5776265169622437	0.852345102636051	0.375167427266489	0.15822473366578918	1.4382390231009947	0.4619668077655481	0.13845632188252882	1.1909612976153614	0.46565862056455143	0.1495437859100584	0.9569624414484827	0.382294635755816	0.18265838831063397	0.8613518371063273	0.38190063755148645	0.16657875764499602	0.8566778493469033	0.37251507225188185	0.13237168182087197	0.8508945032819467	0.3769636241789407	
118	1.9666666666666663	0.4339255475474359	1.0074978783560542	0.42351965070600683	0.4721917632668139	0.560764929879098	0.4944812259968234	0.5098223180724173	0.13826776769479088	0.5673121056750755	0.4722239365250787	0.1286293298110701	0.35989213204443377	0.5399244898594208	0.14094766499979267	0.3870031777289312	0.4952467971221059	0.047956056177446305	0.6576833797984942	0.2420842153594368	0.9942073340945676	0.41915606926048726	0.2663967675379761	0.5207197580421279	0.5060975820967295	0.31269197285207007	0.11336789593564658	0.5636605894936141	0.3140801393377669	0.12531190250210417	0.3486227048167662	0.2521612448526778	0.11972775172915748	0.40005246811408496	0.3259650513504457	0.04703356792310215	0.6233313185541947	0.31116878147412985	1.5220793501338064	0.450802502210476	0.2894983132500025	1.7656166502219786	0.4097210896835861	0.3073759895814973	1.6482897205993896	0.30002563362690626	0.4578710484355672	1.448754509800246	0.4707153462675816	0.5447146495384411	1.223257754407469	0.4160737239091538	0.5608911233737434	0.9784144613926857	0.38194954945546605	0.5078466457015685	0.8557851941781662	0.3771578351440846	0.5260458754031375	0.8578875596511731	0.3371962982579875	0.5769476500530037	0.852886655650303	0.3733919889402	0.1581149416489319	1.438438611750828	0.46051960584719664	0.13853721613608688	1.1909238716403563	0.46589569928033814	0.14955309400477654	0.9570002745416467	0.3822099866253245	0.18175618585436085	0.8628155426582761	0.37724115127176416	0.16659146670661282	0.8566007648363284	0.3726046109695178	0.13225068472288357	0.8517292124377437	0.3765790460559726	
119	1.9833333333333327	0.4337466466039853	1.007167837112116	0.42439296292710116	0.47221875609457203	0.560787975807675	0.4944286190115771	0.5095714543806191	0.13825154639160842	0.5672646865881955	0.4729828407490746	0.12714059777585432	0.3619564434496822	0.5400481625470026	0.14048688217171165	0.3871797470054591	0.4950884222781837	0.04833641704755215	0.6574852837055897	0.241983347609745	0.994588968116397	0.41935441418208663	0.2663978246092863	0.5207331302211291	0.5060927642707755	0.311855919228844	0.11407466918397806	0.5615378372473154	0.31336088815079627	0.12471661104230981	0.3495226521031725	0.2521540649882355	0.11968743875884613	0.4000782233229228	0.325798581115739	0.0468662761352088	0.6235682066472892	0.31105760567639384	1.5229218436162615	0.45095597659294523	0.2888325792937178	1.76625451666385	0.40951916832066093	0.30703536475684784	1.6485359365578331	0.30117473756323015	0.4578935141117446	1.4489789949218956	0.4705015375529901	0.5446174090124298	1.2232847436596619	0.4159946456058862	0.5612991565439763	0.9799457826847495	0.3801333497107383	0.5080564274898052	0.8565992247744939	0.37618719696450903	0.5255934120477198	0.8578482321885451	0.337393716339222	0.575960840394313	0.8538104857891112	0.370755025400975	0.15780521278793871	1.4383130617328235	0.4598957037291376	0.1385043453768463	1.1909310926175956	0.46564426718045193	0.1495838106674941	0.9570495276716472	0.3820968243147253	0.1819216188660492	0.8645091924470321	0.3723066342038337	0.1667639918628681	0.8565189829337753	0.37273528959628477	0.1323063955277925	0.8529628675215458	0.3756672811057964	
120	2.0	0.4335957335537238	1.0069128206339466	0.4252273743277225	0.4722458082335522	0.5607915543530122	0.49437124858594556	0.5094035900666029	0.13813282502046026	0.5672216381223072	0.4740422385167957	0.12490045915540766	0.3644564732215683	0.5402055483577602	0.13987090805332336	0.38728495814806113	0.494880263908926	0.04882446550698551	0.657261326100754	0.24190018240354574	0.9949684384955916	0.41957445174899616	0.2663975944634763	0.5207508994487743	0.5060922202057514	0.3110022984648853	0.11477734330866057	0.559393370531796	0.3125206478101232	0.12368712361760445	0.3510790979508149	0.2521428143013624	0.11965786636310473	0.40010202461186933	0.3256803681131464	0.04663560310882365	0.6237550670249061	0.31097909274133806	1.5235634812322336	0.45114589168396324	0.2881875453442257	1.7669330567942538	0.4092487728265499	0.3064998753471144	1.6484835637761461	0.3030731436822709	0.4579023104523358	1.448854331769729	0.47052850304339033	0.5445734978561825	1.2232990925202412	0.41593041163663363	0.561505791368492	0.9814508650501749	0.3793184356180665	0.5084166382901609	0.8578137424016496	0.37324806308791253	0.5257317671466833	0.8582753484603161	0.3366324975600361	0.5748107962903957	0.8549852852225684	0.3676237200373512	0.157535640586691	1.4381225102699153	0.45990104364263956	0.1382784493120296	1.1910989230218967	0.46462960936835823	0.1496084451005701	0.9570909240040333	0.3820195872488095	0.18325794641772633	0.8666502197518934	0.3665117613630251	0.16706906999366705	0.8566213635252045	0.3725516605767514	0.13262333318360026	0.8546083570553384	0.3738613984118305	
